<svg xmlns="http://www.w3.org/2000/svg" width="2250" viewBox="0 0 2250 750" height="750" version="1.0"><g fill="#E71B4C"><g><g><path d="M 165.101562 -257.757812 C 168.46875 -300.71875 207.21875 -337.78125 260.285156 -337.78125 C 315.039062 -337.78125 342.835938 -301.5625 342.835938 -257.757812 Z M 470.03125 -204.691406 C 470.03125 -347.890625 383.269531 -432.96875 259.445312 -432.96875 C 132.25 -432.96875 32.851562 -345.363281 32.851562 -208.058594 C 32.851562 -66.546875 137.304688 13.476562 263.65625 13.476562 C 348.734375 13.476562 414.4375 -18.53125 454.027344 -75.8125 L 358 -136.460938 C 339.46875 -111.191406 309.140625 -92.660156 265.339844 -92.660156 C 215.640625 -92.660156 169.3125 -125.511719 165.101562 -171.839844 L 469.1875 -171.839844 C 470.03125 -181.949219 470.03125 -193.742188 470.03125 -204.691406 Z M 470.03125 -204.691406" transform="translate(.12 655.769)"/></g></g></g><g fill="#E71B4C"><g><g><path d="M 478.453125 -419.492188 L 331.042969 -419.492188 L 242.597656 -147.410156 L 240.070312 -147.410156 L 151.621094 -419.492188 L -0.84375 -419.492188 L 164.257812 0 L 313.355469 0 Z M 478.453125 -419.492188" transform="translate(502.152 655.769)"/></g></g></g><g fill="#E71B4C"><g><g><path d="M 203.847656 -553.425781 C 203.847656 -595.542969 168.46875 -629.234375 124.667969 -629.234375 C 80.023438 -629.234375 45.488281 -593.855469 45.488281 -553.425781 C 45.488281 -512.148438 80.023438 -477.613281 124.667969 -477.613281 C 168.46875 -477.613281 203.847656 -510.464844 203.847656 -553.425781 Z M 193.742188 0 L 193.742188 -419.492188 L 55.59375 -419.492188 L 55.59375 0 Z M 193.742188 0" transform="translate(979.756 655.769)"/></g></g></g><g fill="#E71B4C"><g><g><path d="M 468.347656 0 L 468.347656 -259.445312 C 468.347656 -343.679688 427.914062 -431.28125 315.039062 -431.28125 C 256.917969 -431.28125 208.902344 -398.429688 189.527344 -361.367188 L 187.84375 -361.367188 L 187.84375 -419.492188 L 53.910156 -419.492188 L 53.910156 0 L 192.898438 0 L 192.898438 -227.433594 C 192.898438 -275.449219 218.167969 -317.566406 267.023438 -317.566406 C 316.722656 -317.566406 329.359375 -275.449219 329.359375 -229.121094 L 329.359375 0 Z M 468.347656 0" transform="translate(1229.087 655.769)"/></g></g></g><g fill="#E71B4C"><g><g><path d="M 165.101562 -257.757812 C 168.46875 -300.71875 207.21875 -337.78125 260.285156 -337.78125 C 315.039062 -337.78125 342.835938 -301.5625 342.835938 -257.757812 Z M 470.03125 -204.691406 C 470.03125 -347.890625 383.269531 -432.96875 259.445312 -432.96875 C 132.25 -432.96875 32.851562 -345.363281 32.851562 -208.058594 C 32.851562 -66.546875 137.304688 13.476562 263.65625 13.476562 C 348.734375 13.476562 414.4375 -18.53125 454.027344 -75.8125 L 358 -136.460938 C 339.46875 -111.191406 309.140625 -92.660156 265.339844 -92.660156 C 215.640625 -92.660156 169.3125 -125.511719 165.101562 -171.839844 L 469.1875 -171.839844 C 470.03125 -181.949219 470.03125 -193.742188 470.03125 -204.691406 Z M 470.03125 -204.691406" transform="translate(1747.965 655.769)"/></g></g></g><g fill="#E71B4C"><g><g><path d="M 7.96875 -15.886719 L 13.726562 -15.886719 L 23.136719 0 L 27.359375 0 L 17.425781 -16.175781 C 22.367188 -16.703125 26.113281 -19.871094 26.113281 -24.910156 C 26.113281 -31.535156 21.214844 -33.984375 14.496094 -33.984375 L 4.511719 -33.984375 L 4.511719 0 L 7.96875 0 Z M 7.96875 -31.007812 L 14.113281 -31.007812 C 19.246094 -31.007812 22.65625 -29.375 22.65625 -24.910156 C 22.65625 -20.878906 19.488281 -18.863281 13.96875 -18.863281 L 7.96875 -18.863281 Z M 7.96875 -31.007812" transform="translate(1074.398 733.05)"/></g></g></g><g fill="#E71B4C"><g><g><path d="M 6.144531 -12.960938 C 6.433594 -16.800781 9.648438 -20.304688 14.015625 -20.304688 C 18.671875 -20.304688 21.265625 -17.183594 21.457031 -12.960938 Z M 24.769531 -11.902344 C 24.769531 -18.046875 21.070312 -23.039062 14.015625 -23.039062 C 7.632812 -23.039062 2.6875 -18 2.6875 -11.230469 C 2.6875 -4.464844 7.632812 0.574219 14.304688 0.574219 C 18 0.574219 21.3125 -0.816406 23.953125 -4.175781 L 21.503906 -6.097656 C 20.257812 -4.078125 17.664062 -2.207031 14.304688 -2.207031 C 9.695312 -2.207031 6.191406 -5.855469 6.097656 -10.367188 L 24.71875 -10.367188 C 24.769531 -10.945312 24.769531 -11.472656 24.769531 -11.902344 Z M 24.769531 -11.902344" transform="translate(1103.15 733.05)"/></g></g></g><g fill="#E71B4C"><g><g><path d="M 18.480469 -13.777344 C 10.273438 -13.777344 2.640625 -13.152344 2.640625 -6.238281 C 2.640625 -1.246094 7.007812 0.574219 10.414062 0.574219 C 14.015625 0.574219 16.511719 -0.671875 18.574219 -3.648438 L 18.671875 -3.648438 C 18.671875 -2.449219 18.816406 -1.105469 19.007812 0 L 21.9375 0 C 21.695312 -1.246094 21.550781 -3.3125 21.550781 -5.039062 L 21.550781 -14.878906 C 21.550781 -20.351562 17.664062 -23.039062 12.816406 -23.039062 C 8.976562 -23.039062 5.808594 -21.648438 3.984375 -19.824219 L 5.808594 -17.664062 C 7.390625 -19.246094 9.839844 -20.304688 12.480469 -20.304688 C 16.367188 -20.304688 18.480469 -18.382812 18.480469 -14.496094 Z M 18.480469 -11.230469 L 18.480469 -9.550781 C 18.480469 -5.566406 15.886719 -2.113281 11.28125 -2.113281 C 8.734375 -2.113281 6 -3.167969 6 -6.382812 C 6 -10.65625 12.191406 -11.230469 17.519531 -11.230469 Z M 18.480469 -11.230469" transform="translate(1130.606 733.05)"/></g></g></g><g fill="#E71B4C"><g><g><path d="M 7.679688 -36.289062 L 4.414062 -36.289062 L 4.414062 0 L 7.679688 0 Z M 7.679688 -36.289062" transform="translate(1156.238 733.05)"/></g></g></g><g fill="#E71B4C"><g><g><path d="M 7.96875 -16.175781 L 24.433594 -16.175781 L 24.433594 -19.199219 L 7.96875 -19.199219 L 7.96875 -30.910156 L 25.585938 -30.910156 L 25.585938 -33.984375 L 4.511719 -33.984375 L 4.511719 0 L 26.160156 0 L 26.160156 -3.070312 L 7.96875 -3.070312 Z M 7.96875 -16.175781" transform="translate(1180.334 733.05)"/></g></g></g><g fill="#E71B4C"><g><g><path d="M 18.769531 -19.007812 C 17.328125 -21.550781 14.015625 -23.039062 10.894531 -23.039062 C 6.816406 -23.039062 2.878906 -21.070312 2.878906 -16.511719 C 2.878906 -12.238281 6.671875 -11.089844 9.3125 -10.464844 C 13.585938 -9.457031 15.9375 -8.496094 15.9375 -6.144531 C 15.9375 -3.214844 13.441406 -2.207031 10.65625 -2.207031 C 8.015625 -2.207031 5.566406 -3.742188 4.414062 -5.710938 L 1.824219 -3.792969 C 3.886719 -0.769531 7.296875 0.574219 10.703125 0.574219 C 14.832031 0.574219 19.152344 -1.246094 19.152344 -6.382812 C 19.152344 -9.886719 16.65625 -11.855469 11.375 -12.960938 C 7.679688 -13.726562 6 -14.6875 6 -16.800781 C 6 -19.296875 8.398438 -20.304688 10.753906 -20.304688 C 13.246094 -20.304688 15.3125 -19.007812 16.273438 -17.136719 Z M 18.769531 -19.007812" transform="translate(1208.75 733.05)"/></g></g></g><g fill="#E71B4C"><g><g><path d="M 14.449219 -22.464844 L 8.113281 -22.464844 L 8.113281 -28.800781 L 4.847656 -28.800781 L 4.847656 -22.464844 L 0.191406 -22.464844 L 0.191406 -19.726562 L 4.847656 -19.726562 L 4.847656 -5.710938 C 4.847656 -0.769531 8.207031 0.289062 10.609375 0.289062 C 12.097656 0.289062 13.296875 0.046875 14.449219 -0.382812 L 14.304688 -3.214844 C 13.441406 -2.785156 12.382812 -2.496094 11.472656 -2.496094 C 9.503906 -2.496094 8.113281 -3.265625 8.113281 -6.625 L 8.113281 -19.726562 L 14.449219 -19.726562 Z M 14.449219 -22.464844" transform="translate(1230.062 733.05)"/></g></g></g><g fill="#E71B4C"><g><g><path d="M 18.480469 -13.777344 C 10.273438 -13.777344 2.640625 -13.152344 2.640625 -6.238281 C 2.640625 -1.246094 7.007812 0.574219 10.414062 0.574219 C 14.015625 0.574219 16.511719 -0.671875 18.574219 -3.648438 L 18.671875 -3.648438 C 18.671875 -2.449219 18.816406 -1.105469 19.007812 0 L 21.9375 0 C 21.695312 -1.246094 21.550781 -3.3125 21.550781 -5.039062 L 21.550781 -14.878906 C 21.550781 -20.351562 17.664062 -23.039062 12.816406 -23.039062 C 8.976562 -23.039062 5.808594 -21.648438 3.984375 -19.824219 L 5.808594 -17.664062 C 7.390625 -19.246094 9.839844 -20.304688 12.480469 -20.304688 C 16.367188 -20.304688 18.480469 -18.382812 18.480469 -14.496094 Z M 18.480469 -11.230469 L 18.480469 -9.550781 C 18.480469 -5.566406 15.886719 -2.113281 11.28125 -2.113281 C 8.734375 -2.113281 6 -3.167969 6 -6.382812 C 6 -10.65625 12.191406 -11.230469 17.519531 -11.230469 Z M 18.480469 -11.230469" transform="translate(1245.278 733.05)"/></g></g></g><g fill="#E71B4C"><g><g><path d="M 14.449219 -22.464844 L 8.113281 -22.464844 L 8.113281 -28.800781 L 4.847656 -28.800781 L 4.847656 -22.464844 L 0.191406 -22.464844 L 0.191406 -19.726562 L 4.847656 -19.726562 L 4.847656 -5.710938 C 4.847656 -0.769531 8.207031 0.289062 10.609375 0.289062 C 12.097656 0.289062 13.296875 0.046875 14.449219 -0.382812 L 14.304688 -3.214844 C 13.441406 -2.785156 12.382812 -2.496094 11.472656 -2.496094 C 9.503906 -2.496094 8.113281 -3.265625 8.113281 -6.625 L 8.113281 -19.726562 L 14.449219 -19.726562 Z M 14.449219 -22.464844" transform="translate(1270.91 733.05)"/></g></g></g><g fill="#E71B4C"><g><g><path d="M 6.144531 -12.960938 C 6.433594 -16.800781 9.648438 -20.304688 14.015625 -20.304688 C 18.671875 -20.304688 21.265625 -17.183594 21.457031 -12.960938 Z M 24.769531 -11.902344 C 24.769531 -18.046875 21.070312 -23.039062 14.015625 -23.039062 C 7.632812 -23.039062 2.6875 -18 2.6875 -11.230469 C 2.6875 -4.464844 7.632812 0.574219 14.304688 0.574219 C 18 0.574219 21.3125 -0.816406 23.953125 -4.175781 L 21.503906 -6.097656 C 20.257812 -4.078125 17.664062 -2.207031 14.304688 -2.207031 C 9.695312 -2.207031 6.191406 -5.855469 6.097656 -10.367188 L 24.71875 -10.367188 C 24.769531 -10.945312 24.769531 -11.472656 24.769531 -11.902344 Z M 24.769531 -11.902344" transform="translate(1286.126 733.05)"/></g></g></g><g fill="#E71B4C"><g><g><path d="M 7.96875 -33.984375 L 4.511719 -33.984375 L 4.511719 0 L 23.808594 0 L 23.808594 -3.070312 L 7.96875 -3.070312 Z M 7.96875 -33.984375" transform="translate(1325.582 733.05)"/></g></g></g><g fill="#E71B4C"><g><g><path d="M 7.632812 -22.464844 L 4.367188 -22.464844 L 4.367188 0 L 7.632812 0 Z M 8.304688 -31.105469 C 8.304688 -32.449219 7.152344 -33.40625 6 -33.40625 C 4.847656 -33.40625 3.695312 -32.449219 3.695312 -31.105469 C 3.695312 -29.761719 4.847656 -28.800781 6 -28.800781 C 7.152344 -28.800781 8.304688 -29.761719 8.304688 -31.105469 Z M 8.304688 -31.105469" transform="translate(1350.062 733.05)"/></g></g></g><g fill="#E71B4C"><g><g><path d="M 18.769531 -19.007812 C 17.328125 -21.550781 14.015625 -23.039062 10.894531 -23.039062 C 6.816406 -23.039062 2.878906 -21.070312 2.878906 -16.511719 C 2.878906 -12.238281 6.671875 -11.089844 9.3125 -10.464844 C 13.585938 -9.457031 15.9375 -8.496094 15.9375 -6.144531 C 15.9375 -3.214844 13.441406 -2.207031 10.65625 -2.207031 C 8.015625 -2.207031 5.566406 -3.742188 4.414062 -5.710938 L 1.824219 -3.792969 C 3.886719 -0.769531 7.296875 0.574219 10.703125 0.574219 C 14.832031 0.574219 19.152344 -1.246094 19.152344 -6.382812 C 19.152344 -9.886719 16.65625 -11.855469 11.375 -12.960938 C 7.679688 -13.726562 6 -14.6875 6 -16.800781 C 6 -19.296875 8.398438 -20.304688 10.753906 -20.304688 C 13.246094 -20.304688 15.3125 -19.007812 16.273438 -17.136719 Z M 18.769531 -19.007812" transform="translate(1362.062 733.05)"/></g></g></g><g fill="#E71B4C"><g><g><path d="M 14.449219 -22.464844 L 8.113281 -22.464844 L 8.113281 -28.800781 L 4.847656 -28.800781 L 4.847656 -22.464844 L 0.191406 -22.464844 L 0.191406 -19.726562 L 4.847656 -19.726562 L 4.847656 -5.710938 C 4.847656 -0.769531 8.207031 0.289062 10.609375 0.289062 C 12.097656 0.289062 13.296875 0.046875 14.449219 -0.382812 L 14.304688 -3.214844 C 13.441406 -2.785156 12.382812 -2.496094 11.472656 -2.496094 C 9.503906 -2.496094 8.113281 -3.265625 8.113281 -6.625 L 8.113281 -19.726562 L 14.449219 -19.726562 Z M 14.449219 -22.464844" transform="translate(1383.374 733.05)"/></g></g></g><g fill="#E71B4C"><g><g><path d="M 7.632812 -22.464844 L 4.367188 -22.464844 L 4.367188 0 L 7.632812 0 Z M 8.304688 -31.105469 C 8.304688 -32.449219 7.152344 -33.40625 6 -33.40625 C 4.847656 -33.40625 3.695312 -32.449219 3.695312 -31.105469 C 3.695312 -29.761719 4.847656 -28.800781 6 -28.800781 C 7.152344 -28.800781 8.304688 -29.761719 8.304688 -31.105469 Z M 8.304688 -31.105469" transform="translate(1398.59 733.05)"/></g></g></g><g fill="#E71B4C"><g><g><path d="M 4.128906 -22.464844 C 4.273438 -20.929688 4.320312 -18.71875 4.320312 -17.519531 L 4.320312 0 L 7.585938 0 L 7.585938 -11.519531 C 7.585938 -17.519531 10.945312 -20.304688 14.398438 -20.304688 C 19.105469 -20.304688 20.496094 -17.136719 20.496094 -12.433594 L 20.496094 0 L 23.761719 0 L 23.761719 -13.777344 C 23.761719 -19.34375 20.929688 -23.039062 15.214844 -23.039062 C 12.046875 -23.039062 8.785156 -21.214844 7.535156 -18.625 L 7.441406 -18.625 C 7.441406 -19.585938 7.34375 -21.265625 7.246094 -22.464844 Z M 4.128906 -22.464844" transform="translate(1410.59 733.05)"/></g></g></g><g fill="#E71B4C"><g><g><path d="M 3.167969 7.007812 C 5.808594 9.792969 9.839844 11.519531 13.96875 11.519531 C 23.902344 11.519531 26.160156 4.703125 26.160156 -0.191406 L 26.160156 -22.464844 L 22.894531 -22.464844 L 22.894531 -18.574219 L 22.800781 -18.574219 C 21.023438 -21.457031 17.566406 -23.039062 14.304688 -23.039062 C 7.296875 -23.039062 2.6875 -17.808594 2.6875 -11.425781 C 2.6875 -4.847656 7.296875 0 14.304688 0 C 17.566406 0 21.070312 -1.632812 22.800781 -4.414062 L 22.894531 -4.414062 L 22.894531 -0.191406 C 22.894531 4.65625 20.542969 8.640625 14.113281 8.640625 C 10.703125 8.640625 7.296875 6.816406 5.519531 4.511719 Z M 6.144531 -11.519531 C 6.144531 -16.222656 9.214844 -20.304688 14.640625 -20.304688 C 19.679688 -20.304688 23.28125 -16.222656 23.28125 -11.519531 C 23.28125 -6.335938 19.679688 -2.785156 14.640625 -2.785156 C 9.214844 -2.785156 6.144531 -6.816406 6.144531 -11.519531 Z M 6.144531 -11.519531" transform="translate(1438.478 733.05)"/></g></g></g><g fill="#E71B4C"><g><g><path d="M 4.320312 -33.984375 L 0.671875 -33.984375 L 10.703125 0 L 14.734375 0 L 23.28125 -29.183594 L 23.375 -29.183594 L 31.921875 0 L 35.953125 0 L 45.984375 -33.984375 L 42.335938 -33.984375 L 34.03125 -4.753906 L 33.9375 -4.753906 L 25.441406 -33.984375 L 21.3125 -33.984375 L 12.816406 -4.753906 L 12.71875 -4.753906 Z M 4.320312 -33.984375" transform="translate(1480.814 733.05)"/></g></g></g><g fill="#E71B4C"><g><g><path d="M 6.144531 -12.960938 C 6.433594 -16.800781 9.648438 -20.304688 14.015625 -20.304688 C 18.671875 -20.304688 21.265625 -17.183594 21.457031 -12.960938 Z M 24.769531 -11.902344 C 24.769531 -18.046875 21.070312 -23.039062 14.015625 -23.039062 C 7.632812 -23.039062 2.6875 -18 2.6875 -11.230469 C 2.6875 -4.464844 7.632812 0.574219 14.304688 0.574219 C 18 0.574219 21.3125 -0.816406 23.953125 -4.175781 L 21.503906 -6.097656 C 20.257812 -4.078125 17.664062 -2.207031 14.304688 -2.207031 C 9.695312 -2.207031 6.191406 -5.855469 6.097656 -10.367188 L 24.71875 -10.367188 C 24.769531 -10.945312 24.769531 -11.472656 24.769531 -11.902344 Z M 24.769531 -11.902344" transform="translate(1527.47 733.05)"/></g></g></g><g fill="#E71B4C"><g><g><path d="M 7.777344 -3.792969 C 9.695312 -0.960938 13.054688 0.574219 16.273438 0.574219 C 23.28125 0.574219 27.886719 -4.609375 27.886719 -11.230469 C 27.886719 -17.855469 23.28125 -23.039062 16.273438 -23.039062 C 13.054688 -23.039062 9.695312 -21.503906 7.777344 -18.574219 L 7.679688 -18.574219 L 7.679688 -36.289062 L 4.414062 -36.289062 L 4.414062 0 L 7.679688 0 L 7.679688 -3.792969 Z M 24.433594 -11.230469 C 24.433594 -6.238281 21.359375 -2.207031 15.9375 -2.207031 C 10.894531 -2.207031 7.296875 -6.097656 7.296875 -11.230469 C 7.296875 -16.367188 10.894531 -20.304688 15.9375 -20.304688 C 21.359375 -20.304688 24.433594 -16.222656 24.433594 -11.230469 Z M 24.433594 -11.230469" transform="translate(1554.926 733.05)"/></g></g></g><g fill="#E71B4C"><g><g><path d="M 18.769531 -19.007812 C 17.328125 -21.550781 14.015625 -23.039062 10.894531 -23.039062 C 6.816406 -23.039062 2.878906 -21.070312 2.878906 -16.511719 C 2.878906 -12.238281 6.671875 -11.089844 9.3125 -10.464844 C 13.585938 -9.457031 15.9375 -8.496094 15.9375 -6.144531 C 15.9375 -3.214844 13.441406 -2.207031 10.65625 -2.207031 C 8.015625 -2.207031 5.566406 -3.742188 4.414062 -5.710938 L 1.824219 -3.792969 C 3.886719 -0.769531 7.296875 0.574219 10.703125 0.574219 C 14.832031 0.574219 19.152344 -1.246094 19.152344 -6.382812 C 19.152344 -9.886719 16.65625 -11.855469 11.375 -12.960938 C 7.679688 -13.726562 6 -14.6875 6 -16.800781 C 6 -19.296875 8.398438 -20.304688 10.753906 -20.304688 C 13.246094 -20.304688 15.3125 -19.007812 16.273438 -17.136719 Z M 18.769531 -19.007812" transform="translate(1585.501 733.05)"/></g></g></g><g fill="#E71B4C"><g><g><path d="M 7.632812 -22.464844 L 4.367188 -22.464844 L 4.367188 0 L 7.632812 0 Z M 8.304688 -31.105469 C 8.304688 -32.449219 7.152344 -33.40625 6 -33.40625 C 4.847656 -33.40625 3.695312 -32.449219 3.695312 -31.105469 C 3.695312 -29.761719 4.847656 -28.800781 6 -28.800781 C 7.152344 -28.800781 8.304688 -29.761719 8.304688 -31.105469 Z M 8.304688 -31.105469" transform="translate(1606.813 733.05)"/></g></g></g><g fill="#E71B4C"><g><g><path d="M 14.449219 -22.464844 L 8.113281 -22.464844 L 8.113281 -28.800781 L 4.847656 -28.800781 L 4.847656 -22.464844 L 0.191406 -22.464844 L 0.191406 -19.726562 L 4.847656 -19.726562 L 4.847656 -5.710938 C 4.847656 -0.769531 8.207031 0.289062 10.609375 0.289062 C 12.097656 0.289062 13.296875 0.046875 14.449219 -0.382812 L 14.304688 -3.214844 C 13.441406 -2.785156 12.382812 -2.496094 11.472656 -2.496094 C 9.503906 -2.496094 8.113281 -3.265625 8.113281 -6.625 L 8.113281 -19.726562 L 14.449219 -19.726562 Z M 14.449219 -22.464844" transform="translate(1618.813 733.05)"/></g></g></g><g fill="#E71B4C"><g><g><path d="M 6.144531 -12.960938 C 6.433594 -16.800781 9.648438 -20.304688 14.015625 -20.304688 C 18.671875 -20.304688 21.265625 -17.183594 21.457031 -12.960938 Z M 24.769531 -11.902344 C 24.769531 -18.046875 21.070312 -23.039062 14.015625 -23.039062 C 7.632812 -23.039062 2.6875 -18 2.6875 -11.230469 C 2.6875 -4.464844 7.632812 0.574219 14.304688 0.574219 C 18 0.574219 21.3125 -0.816406 23.953125 -4.175781 L 21.503906 -6.097656 C 20.257812 -4.078125 17.664062 -2.207031 14.304688 -2.207031 C 9.695312 -2.207031 6.191406 -5.855469 6.097656 -10.367188 L 24.71875 -10.367188 C 24.769531 -10.945312 24.769531 -11.472656 24.769531 -11.902344 Z M 24.769531 -11.902344" transform="translate(1634.03 733.05)"/></g></g></g><g fill="#E71B4C"><g><g><path d="M 4.511719 0 L 15.792969 0 C 24.289062 0 33.648438 -5.664062 33.648438 -16.992188 C 33.648438 -28.320312 24.289062 -33.984375 15.792969 -33.984375 L 4.511719 -33.984375 Z M 7.96875 -30.910156 L 14.832031 -30.910156 C 25.054688 -30.910156 30 -24 30 -16.992188 C 30 -9.984375 25.054688 -3.070312 14.832031 -3.070312 L 7.96875 -3.070312 Z M 7.96875 -30.910156" transform="translate(1673.485 733.05)"/></g></g></g><g fill="#E71B4C"><g><g><path d="M 6.144531 -12.960938 C 6.433594 -16.800781 9.648438 -20.304688 14.015625 -20.304688 C 18.671875 -20.304688 21.265625 -17.183594 21.457031 -12.960938 Z M 24.769531 -11.902344 C 24.769531 -18.046875 21.070312 -23.039062 14.015625 -23.039062 C 7.632812 -23.039062 2.6875 -18 2.6875 -11.230469 C 2.6875 -4.464844 7.632812 0.574219 14.304688 0.574219 C 18 0.574219 21.3125 -0.816406 23.953125 -4.175781 L 21.503906 -6.097656 C 20.257812 -4.078125 17.664062 -2.207031 14.304688 -2.207031 C 9.695312 -2.207031 6.191406 -5.855469 6.097656 -10.367188 L 24.71875 -10.367188 C 24.769531 -10.945312 24.769531 -11.472656 24.769531 -11.902344 Z M 24.769531 -11.902344" transform="translate(1709.821 733.05)"/></g></g></g><g fill="#E71B4C"><g><g><path d="M 7.535156 -18.625 L 7.441406 -18.625 C 7.441406 -19.585938 7.34375 -21.265625 7.246094 -22.464844 L 4.128906 -22.464844 C 4.273438 -20.929688 4.320312 -18.71875 4.320312 -17.519531 L 4.320312 0 L 7.585938 0 L 7.585938 -11.519531 C 7.585938 -17.519531 10.992188 -20.304688 14.113281 -20.304688 C 18.480469 -20.304688 19.535156 -17.472656 19.535156 -13.105469 L 19.535156 0 L 22.800781 0 L 22.800781 -11.953125 C 22.800781 -16.128906 24.480469 -20.304688 29.183594 -20.304688 C 33.40625 -20.304688 34.992188 -17.136719 34.992188 -12.433594 L 34.992188 0 L 38.257812 0 L 38.257812 -13.777344 C 38.257812 -19.34375 35.425781 -23.039062 29.710938 -23.039062 C 26.113281 -23.039062 23.375 -21.359375 21.839844 -18.289062 C 20.351562 -22.128906 17.375 -23.039062 14.929688 -23.039062 C 11.710938 -23.039062 8.832031 -21.214844 7.535156 -18.625 Z M 7.535156 -18.625" transform="translate(1737.277 733.05)"/></g></g></g><g fill="#E71B4C"><g><g><path d="M 26.640625 -11.230469 C 26.640625 -18 21.648438 -23.039062 14.640625 -23.039062 C 7.679688 -23.039062 2.6875 -18 2.6875 -11.230469 C 2.6875 -4.464844 7.679688 0.574219 14.640625 0.574219 C 21.648438 0.574219 26.640625 -4.464844 26.640625 -11.230469 Z M 23.183594 -11.230469 C 23.183594 -6.191406 19.871094 -2.207031 14.640625 -2.207031 C 9.457031 -2.207031 6.144531 -6.191406 6.144531 -11.230469 C 6.144531 -16.273438 9.457031 -20.304688 14.640625 -20.304688 C 19.871094 -20.304688 23.183594 -16.273438 23.183594 -11.230469 Z M 23.183594 -11.230469" transform="translate(1779.661 733.05)"/></g></g></g><g fill="#E71B4C"><g><g><path d="M 13.824219 -22.464844 L 8.542969 -22.464844 L 8.542969 -28.222656 C 8.542969 -31.488281 9.265625 -33.984375 12.769531 -33.984375 C 13.632812 -33.984375 14.351562 -33.839844 15.023438 -33.648438 L 15.601562 -36.527344 C 14.785156 -36.769531 13.726562 -36.863281 12.910156 -36.863281 C 7.777344 -36.863281 5.28125 -33.695312 5.28125 -28.609375 L 5.28125 -22.464844 L 0.574219 -22.464844 L 0.574219 -19.726562 L 5.28125 -19.726562 L 5.28125 0 L 8.542969 0 L 8.542969 -19.726562 L 13.824219 -19.726562 Z M 13.824219 -22.464844" transform="translate(1820.99 733.05)"/></g></g></g><g fill="#E71B4C"><g><g><path d="M 4.320312 -17.519531 L 4.320312 0 L 7.585938 0 L 7.585938 -11.519531 C 7.585938 -17.519531 10.703125 -20.015625 14.160156 -20.015625 C 15.023438 -20.015625 16.078125 -19.871094 16.464844 -19.726562 L 16.894531 -22.800781 C 16.222656 -22.992188 15.550781 -23.039062 14.734375 -23.039062 C 11.566406 -23.039062 8.785156 -21.214844 7.535156 -18.625 L 7.441406 -18.625 C 7.441406 -19.585938 7.34375 -21.265625 7.246094 -22.464844 L 4.128906 -22.464844 C 4.273438 -20.929688 4.320312 -18.71875 4.320312 -17.519531 Z M 4.320312 -17.519531" transform="translate(1835.15 733.05)"/></g></g></g><g fill="#E71B4C"><g><g><path d="M 26.640625 -11.230469 C 26.640625 -18 21.648438 -23.039062 14.640625 -23.039062 C 7.679688 -23.039062 2.6875 -18 2.6875 -11.230469 C 2.6875 -4.464844 7.679688 0.574219 14.640625 0.574219 C 21.648438 0.574219 26.640625 -4.464844 26.640625 -11.230469 Z M 23.183594 -11.230469 C 23.183594 -6.191406 19.871094 -2.207031 14.640625 -2.207031 C 9.457031 -2.207031 6.144531 -6.191406 6.144531 -11.230469 C 6.144531 -16.273438 9.457031 -20.304688 14.640625 -20.304688 C 19.871094 -20.304688 23.183594 -16.273438 23.183594 -11.230469 Z M 23.183594 -11.230469" transform="translate(1852.43 733.05)"/></g></g></g><g fill="#E71B4C"><g><g><path d="M 7.535156 -18.625 L 7.441406 -18.625 C 7.441406 -19.585938 7.34375 -21.265625 7.246094 -22.464844 L 4.128906 -22.464844 C 4.273438 -20.929688 4.320312 -18.71875 4.320312 -17.519531 L 4.320312 0 L 7.585938 0 L 7.585938 -11.519531 C 7.585938 -17.519531 10.992188 -20.304688 14.113281 -20.304688 C 18.480469 -20.304688 19.535156 -17.472656 19.535156 -13.105469 L 19.535156 0 L 22.800781 0 L 22.800781 -11.953125 C 22.800781 -16.128906 24.480469 -20.304688 29.183594 -20.304688 C 33.40625 -20.304688 34.992188 -17.136719 34.992188 -12.433594 L 34.992188 0 L 38.257812 0 L 38.257812 -13.777344 C 38.257812 -19.34375 35.425781 -23.039062 29.710938 -23.039062 C 26.113281 -23.039062 23.375 -21.359375 21.839844 -18.289062 C 20.351562 -22.128906 17.375 -23.039062 14.929688 -23.039062 C 11.710938 -23.039062 8.832031 -21.214844 7.535156 -18.625 Z M 7.535156 -18.625" transform="translate(1881.757 733.05)"/></g></g></g><g fill="#E71B4C"><g><g><path d="M 25.679688 -33.984375 L 2.015625 -33.984375 L 2.015625 -30.910156 L 21.359375 -30.910156 L 1.488281 -2.878906 L 1.488281 0 L 25.96875 0 L 25.96875 -3.070312 L 5.855469 -3.070312 L 25.679688 -31.105469 Z M 25.679688 -33.984375" transform="translate(1936.14 733.05)"/></g></g></g><g fill="#E71B4C"><g><g><path d="M 6.144531 -12.960938 C 6.433594 -16.800781 9.648438 -20.304688 14.015625 -20.304688 C 18.671875 -20.304688 21.265625 -17.183594 21.457031 -12.960938 Z M 24.769531 -11.902344 C 24.769531 -18.046875 21.070312 -23.039062 14.015625 -23.039062 C 7.632812 -23.039062 2.6875 -18 2.6875 -11.230469 C 2.6875 -4.464844 7.632812 0.574219 14.304688 0.574219 C 18 0.574219 21.3125 -0.816406 23.953125 -4.175781 L 21.503906 -6.097656 C 20.257812 -4.078125 17.664062 -2.207031 14.304688 -2.207031 C 9.695312 -2.207031 6.191406 -5.855469 6.097656 -10.367188 L 24.71875 -10.367188 C 24.769531 -10.945312 24.769531 -11.472656 24.769531 -11.902344 Z M 24.769531 -11.902344" transform="translate(1963.597 733.05)"/></g></g></g><g fill="#E71B4C"><g><g><path d="M 4.128906 -22.464844 C 4.273438 -20.929688 4.320312 -18.71875 4.320312 -17.519531 L 4.320312 0 L 7.585938 0 L 7.585938 -11.519531 C 7.585938 -17.519531 10.945312 -20.304688 14.398438 -20.304688 C 19.105469 -20.304688 20.496094 -17.136719 20.496094 -12.433594 L 20.496094 0 L 23.761719 0 L 23.761719 -13.777344 C 23.761719 -19.34375 20.929688 -23.039062 15.214844 -23.039062 C 12.046875 -23.039062 8.785156 -21.214844 7.535156 -18.625 L 7.441406 -18.625 C 7.441406 -19.585938 7.34375 -21.265625 7.246094 -22.464844 Z M 4.128906 -22.464844" transform="translate(1991.053 733.05)"/></g></g></g><g fill="#E71B4C"><g><g><path d="M 26.640625 -11.230469 C 26.640625 -18 21.648438 -23.039062 14.640625 -23.039062 C 7.679688 -23.039062 2.6875 -18 2.6875 -11.230469 C 2.6875 -4.464844 7.679688 0.574219 14.640625 0.574219 C 21.648438 0.574219 26.640625 -4.464844 26.640625 -11.230469 Z M 23.183594 -11.230469 C 23.183594 -6.191406 19.871094 -2.207031 14.640625 -2.207031 C 9.457031 -2.207031 6.144531 -6.191406 6.144531 -11.230469 C 6.144531 -16.273438 9.457031 -20.304688 14.640625 -20.304688 C 19.871094 -20.304688 23.183594 -16.273438 23.183594 -11.230469 Z M 23.183594 -11.230469" transform="translate(2018.94 733.05)"/></g></g></g><g fill="#E71B4C"><g><g><path d="M 7.679688 -18.769531 L 7.679688 -36.289062 L 4.414062 -36.289062 L 4.414062 0 L 7.679688 0 L 7.679688 -11.519531 C 7.679688 -17.519531 11.039062 -20.304688 14.496094 -20.304688 C 19.199219 -20.304688 20.59375 -17.136719 20.59375 -12.433594 L 20.59375 0 L 23.855469 0 L 23.855469 -13.777344 C 23.855469 -19.34375 21.023438 -23.039062 15.3125 -23.039062 C 12.144531 -23.039062 8.976562 -21.359375 7.777344 -18.769531 Z M 7.679688 -18.769531" transform="translate(2048.269 733.05)"/></g></g></g><g fill="#E71B4C"><g><g><path d="M 26.640625 -11.230469 C 26.640625 -18 21.648438 -23.039062 14.640625 -23.039062 C 7.679688 -23.039062 2.6875 -18 2.6875 -11.230469 C 2.6875 -4.464844 7.679688 0.574219 14.640625 0.574219 C 21.648438 0.574219 26.640625 -4.464844 26.640625 -11.230469 Z M 23.183594 -11.230469 C 23.183594 -6.191406 19.871094 -2.207031 14.640625 -2.207031 C 9.457031 -2.207031 6.144531 -6.191406 6.144531 -11.230469 C 6.144531 -16.273438 9.457031 -20.304688 14.640625 -20.304688 C 19.871094 -20.304688 23.183594 -16.273438 23.183594 -11.230469 Z M 23.183594 -11.230469" transform="translate(2076.253 733.05)"/></g></g></g><g fill="#E71B4C"><g><g><path d="M 7.679688 -36.289062 L 4.414062 -36.289062 L 4.414062 0 L 7.679688 0 Z M 7.679688 -36.289062" transform="translate(2105.58 733.05)"/></g></g></g><g fill="#E71B4C"><g><g><path d="M 7.632812 -22.464844 L 4.367188 -22.464844 L 4.367188 0 L 7.632812 0 Z M 8.304688 -31.105469 C 8.304688 -32.449219 7.152344 -33.40625 6 -33.40625 C 4.847656 -33.40625 3.695312 -32.449219 3.695312 -31.105469 C 3.695312 -29.761719 4.847656 -28.800781 6 -28.800781 C 7.152344 -28.800781 8.304688 -29.761719 8.304688 -31.105469 Z M 8.304688 -31.105469" transform="translate(2117.676 733.05)"/></g></g><g><g><path d="M 23.039062 -19.152344 C 21.121094 -21.742188 17.710938 -23.039062 14.6875 -23.039062 C 7.441406 -23.039062 2.6875 -18 2.6875 -11.230469 C 2.6875 -4.464844 7.441406 0.574219 14.6875 0.574219 C 18.574219 0.574219 21.3125 -0.960938 23.230469 -3.3125 L 20.785156 -5.136719 C 19.488281 -3.40625 17.519531 -2.207031 14.6875 -2.207031 C 9.457031 -2.207031 6.144531 -6.144531 6.144531 -11.230469 C 6.144531 -16.367188 9.503906 -20.304688 14.734375 -20.304688 C 17.183594 -20.304688 19.441406 -19.054688 20.496094 -17.328125 Z M 23.039062 -19.152344" transform="translate(2129.676 733.05)"/></g></g><g><g><path d="M 18.769531 -19.007812 C 17.328125 -21.550781 14.015625 -23.039062 10.894531 -23.039062 C 6.816406 -23.039062 2.878906 -21.070312 2.878906 -16.511719 C 2.878906 -12.238281 6.671875 -11.089844 9.3125 -10.464844 C 13.585938 -9.457031 15.9375 -8.496094 15.9375 -6.144531 C 15.9375 -3.214844 13.441406 -2.207031 10.65625 -2.207031 C 8.015625 -2.207031 5.566406 -3.742188 4.414062 -5.710938 L 1.824219 -3.792969 C 3.886719 -0.769531 7.296875 0.574219 10.703125 0.574219 C 14.832031 0.574219 19.152344 -1.246094 19.152344 -6.382812 C 19.152344 -9.886719 16.65625 -11.855469 11.375 -12.960938 C 7.679688 -13.726562 6 -14.6875 6 -16.800781 C 6 -19.296875 8.398438 -20.304688 10.753906 -20.304688 C 13.246094 -20.304688 15.3125 -19.007812 16.273438 -17.136719 Z M 18.769531 -19.007812" transform="translate(2153.676 733.05)"/></g></g></g></svg>