<?xml version="1.0" standalone="no"?>
<!DOCTYPE svg PUBLIC "-//W3C//DTD SVG 20010904//EN"
 "http://www.w3.org/TR/2001/REC-SVG-20010904/DTD/svg10.dtd">
<svg version="1.0" xmlns="http://www.w3.org/2000/svg"
 width="1000.000000pt" height="1000.000000pt" viewBox="0 0 1000.000000 1000.000000"
 preserveAspectRatio="xMidYMid meet">
<metadata>
Created by potrace 1.14, written by Peter Selinger 2001-2017
</metadata>
<g transform="translate(0.000000,1000.000000) scale(0.100000,-0.100000)"
fill="#000000" stroke="none">
<path d="M227 9283 c-3 -2 -19 -5 -36 -5 -17 -1 -28 -5 -25 -10 3 -4 5 -411 5
-903 l1 -895 4781 3 4782 2 0 895 c0 589 3 898 10 903 6 5 0 7 -12 4 -13 -3
-25 -1 -28 3 -3 5 -18 5 -34 0 -16 -4 -32 -6 -35 -3 -7 7 -67 10 -71 3 -2 -3
-19 -5 -37 -3 -50 6 -199 4 -208 -2 -5 -3 -11 -1 -14 4 -3 5 -21 6 -38 2 -18
-4 -44 -5 -57 -1 -13 3 -51 3 -83 0 -33 -3 -61 -3 -64 1 -2 4 -19 4 -36 0 -18
-4 -44 -5 -57 -1 -13 3 -51 3 -83 0 -33 -3 -61 -3 -64 1 -2 4 -19 4 -36 0 -18
-4 -44 -5 -57 -1 -13 3 -51 3 -83 0 -33 -3 -62 -2 -64 2 -3 5 -10 6 -15 3 -10
-7 -121 -8 -161 -2 -16 2 -28 1 -28 -2 0 -7 -116 -5 -136 3 -8 3 -14 2 -14 -2
0 -8 -124 -6 -146 2 -8 3 -14 2 -14 -2 0 -8 -124 -6 -146 2 -8 3 -14 2 -14 -2
0 -8 -124 -6 -146 2 -8 3 -14 2 -14 -2 0 -4 -30 -6 -67 -4 -101 4 -194 2 -204
-3 -4 -3 -10 -1 -13 4 -3 5 -21 6 -38 2 -18 -4 -44 -5 -57 -1 -13 3 -51 3 -83
0 -33 -3 -61 -3 -64 1 -2 4 -19 4 -36 0 -18 -4 -44 -5 -57 -1 -13 3 -50 3 -81
0 -31 -3 -67 -3 -80 0 -13 3 -50 3 -82 0 -33 -3 -61 -3 -64 1 -2 4 -19 4 -36
0 -18 -4 -44 -5 -57 -1 -13 3 -51 3 -83 0 -33 -3 -62 -2 -64 2 -3 5 -9 6 -15
3 -12 -8 -137 -10 -145 -3 -3 4 -18 3 -32 -1 -15 -4 -39 -4 -54 0 -16 4 -28 4
-28 1 0 -8 -125 -6 -146 2 -8 3 -14 2 -14 -2 0 -8 -124 -6 -146 2 -8 3 -14 2
-14 -2 0 -8 -124 -6 -146 2 -8 3 -14 2 -14 -2 0 -8 -118 -7 -126 1 -3 2 -19 2
-37 -2 -18 -4 -43 -5 -56 -1 -13 3 -51 3 -83 0 -33 -3 -61 -3 -64 1 -2 4 -19
4 -36 0 -18 -4 -44 -5 -57 -1 -13 3 -51 3 -83 0 -33 -3 -61 -3 -64 1 -2 4 -19
4 -36 0 -18 -4 -44 -5 -57 -1 -13 3 -51 3 -83 0 -33 -3 -61 -3 -64 1 -2 4 -19
4 -36 0 -18 -4 -44 -5 -57 -1 -13 3 -51 3 -83 0 -33 -3 -62 -2 -64 2 -3 5 -10
6 -15 3 -10 -7 -121 -8 -161 -2 -16 2 -28 1 -28 -2 0 -7 -116 -5 -136 3 -8 3
-14 2 -14 -2 0 -8 -124 -6 -146 2 -8 3 -14 2 -14 -2 0 -8 -124 -6 -146 2 -8 3
-14 2 -14 -2 0 -8 -124 -6 -146 2 -8 3 -14 2 -14 -2 0 -4 -30 -6 -67 -4 -101
4 -194 2 -204 -3 -4 -3 -10 -1 -13 4 -3 5 -21 6 -38 2 -18 -4 -44 -5 -57 -1
-13 3 -51 3 -83 0 -33 -3 -61 -3 -64 1 -2 4 -19 4 -36 0 -18 -4 -44 -5 -57 -1
-13 3 -50 3 -81 0 -31 -3 -67 -3 -80 0 -13 3 -50 3 -82 0 -33 -3 -61 -3 -64 1
-2 4 -19 4 -36 0 -18 -4 -44 -5 -57 -1 -13 3 -51 3 -83 0 -33 -3 -62 -2 -64 2
-3 5 -9 6 -15 3 -12 -8 -137 -10 -145 -3 -3 4 -18 3 -32 -1 -15 -4 -39 -4 -54
0 -16 4 -28 4 -28 1 0 -8 -125 -6 -146 2 -8 3 -14 2 -14 -2 0 -8 -124 -6 -146
2 -8 3 -14 2 -14 -2 0 -8 -124 -6 -146 2 -8 3 -14 2 -14 -2 0 -8 -118 -7 -126
1 -3 2 -19 2 -37 -2 -18 -4 -43 -5 -56 -1 -13 3 -51 3 -83 0 -33 -3 -61 -3
-64 1 -2 4 -19 4 -36 0 -18 -4 -44 -5 -57 -1 -13 3 -51 3 -83 0 -33 -3 -61 -3
-64 1 -2 4 -19 4 -36 0 -18 -4 -44 -5 -57 -1 -13 3 -51 3 -83 0 -33 -3 -61 -3
-64 1 -2 4 -19 4 -36 0 -18 -4 -44 -5 -57 -1 -13 3 -51 3 -83 0 -33 -3 -62 -2
-64 2 -3 5 -10 6 -15 3 -10 -7 -121 -8 -161 -2 -16 2 -28 1 -28 -2 0 -7 -115
-5 -134 2 -6 2 -20 1 -31 -3 -11 -4 -28 -3 -37 2 -11 5 -18 5 -18 -1 0 -5 -12
-6 -27 -2 -16 4 -43 4 -61 0 -17 -4 -34 -3 -37 1 -3 4 -20 5 -37 1 -18 -4 -45
-4 -60 0 -15 4 -29 5 -31 2z"/>
<path d="M175 6780 c-2 -3 -3 -1268 -2 -2810 l2 -2805 900 0 900 0 0 2810 0
2810 -898 0 c-495 0 -900 -2 -902 -5z"/>
<path d="M4051 3978 c0 -2168 3 -2807 12 -2810 7 -3 413 -4 902 -4 l890 1 0
2810 0 2810 -902 0 -902 0 0 -2807z"/>
<path d="M7940 6782 c-7 -3 -10 -948 -10 -2811 l0 -2807 903 1 902 0 0 2808
c1 2515 -1 2807 -15 2808 -36 3 -1771 4 -1780 1z"/>
</g>
</svg>
