<?xml version="1.0" standalone="no"?>
<!DOCTYPE svg PUBLIC "-//W3C//DTD SVG 20010904//EN"
 "http://www.w3.org/TR/2001/REC-SVG-20010904/DTD/svg10.dtd">
<svg version="1.0" xmlns="http://www.w3.org/2000/svg"
 width="700.000000pt" height="700.000000pt" viewBox="0 0 700.000000 700.000000"
 preserveAspectRatio="xMidYMid meet">
<metadata>
Created by potrace 1.14, written by Peter Selinger 2001-2017
</metadata>
<g transform="translate(0.000000,700.000000) scale(0.100000,-0.100000)"
fill="#000000" stroke="none">
<path d="M1929 6726 c-2 -2 -89 -7 -194 -10 -104 -4 -208 -9 -230 -11 -22 -2
-67 -7 -100 -10 -193 -19 -363 -100 -522 -248 -147 -137 -265 -342 -299 -522
-2 -11 -6 -31 -9 -45 -13 -56 -13 -200 0 -280 59 -387 381 -734 732 -790 124
-20 137 -21 1153 -35 449 -7 548 -11 697 -31 53 -8 76 -32 67 -69 -5 -22 -89
-144 -113 -165 -3 -3 -35 -39 -71 -80 -36 -41 -74 -84 -85 -96 -11 -11 -44
-47 -74 -80 -57 -63 -242 -261 -301 -323 -43 -46 -283 -300 -342 -362 -23 -25
-97 -104 -163 -174 -66 -70 -140 -148 -164 -174 -60 -64 -287 -305 -336 -356
-34 -37 -173 -184 -286 -306 -307 -327 -549 -600 -662 -744 -26 -33 -51 -64
-55 -70 -69 -87 -152 -243 -171 -319 -15 -62 -13 -296 4 -401 17 -104 31 -158
61 -223 13 -29 24 -54 24 -57 0 -12 71 -119 115 -170 68 -82 127 -134 210
-187 176 -114 329 -156 570 -157 83 0 168 4 190 10 22 5 48 12 59 14 85 20
252 133 418 285 148 135 682 677 870 882 14 16 88 94 164 175 181 191 264 280
304 323 18 19 66 71 108 115 41 44 105 112 141 150 178 190 320 342 361 385
25 26 91 96 147 156 56 60 123 132 150 160 54 57 282 299 334 355 19 20 89 94
155 165 67 71 141 149 164 174 40 42 262 277 412 435 36 38 83 88 104 110 42
45 272 289 349 370 28 29 104 110 170 181 66 70 131 140 145 154 64 64 258
292 302 355 122 172 140 237 133 490 -9 388 -30 467 -170 640 -99 123 -235
233 -370 300 -200 100 -269 103 -2601 110 -820 2 -1493 3 -1495 1z"/>
<path d="M5708 2305 c-2 -2 -50 -6 -108 -9 -267 -18 -341 -33 -485 -102 -290
-138 -497 -419 -560 -764 -21 -113 -14 -334 13 -437 57 -212 181 -412 328
-528 223 -176 608 -274 856 -218 265 59 519 213 648 392 47 64 99 186 114 262
2 13 7 35 10 49 7 32 14 74 22 130 3 25 8 56 11 70 3 14 8 281 10 593 l5 568
-431 -2 c-237 -1 -432 -3 -433 -4z"/>
</g>
</svg>
